<?xml version="1.0" standalone="no"?>
<!DOCTYPE svg PUBLIC "-//W3C//DTD SVG 20010904//EN"
 "http://www.w3.org/TR/2001/REC-SVG-20010904/DTD/svg10.dtd">
<svg version="1.0" xmlns="http://www.w3.org/2000/svg"
 width="800.000000pt" height="800.000000pt" viewBox="0 0 800.000000 800.000000"
 preserveAspectRatio="xMidYMid meet">
<metadata>
Created by potrace 1.11, written by Peter Selinger 2001-2013
</metadata>
<g transform="translate(0.000000,800.000000) scale(0.100000,-0.100000)"
fill="#000000" stroke="none">
<path d="M3788 7995 c-2 -2 -47 -6 -100 -9 -122 -8 -240 -24 -463 -62 -16 -3
-102 -22 -190 -44 -425 -103 -850 -288 -1235 -539 -30 -19 -57 -38 -60 -41 -3
-3 -12 -9 -21 -15 -197 -121 -564 -453 -764 -690 -32 -38 -62 -71 -67 -73 -4
-2 -8 -10 -8 -18 0 -8 -5 -14 -10 -14 -6 0 -14 -8 -17 -17 -4 -9 -19 -30 -35
-47 -15 -16 -28 -35 -28 -42 0 -8 -4 -14 -9 -14 -13 0 -184 -259 -252 -380
-29 -52 -57 -98 -62 -101 -5 -3 -8 -9 -8 -12 0 -4 -26 -62 -59 -130 -33 -68
-60 -129 -60 -135 0 -7 -4 -12 -8 -12 -4 0 -8 -10 -9 -21 -1 -12 -9 -29 -17
-38 -8 -9 -14 -20 -14 -24 0 -9 -18 -60 -34 -92 -5 -12 -10 -27 -12 -35 -2 -8
-9 -28 -16 -45 -7 -16 -14 -34 -15 -40 0 -5 -4 -17 -8 -25 -5 -14 -49 -155
-53 -172 -1 -5 -2 -9 -4 -10 -1 -2 -3 -10 -5 -18 -44 -173 -55 -220 -59 -245
-3 -16 -8 -41 -11 -55 -3 -14 -7 -36 -9 -50 -3 -14 -7 -32 -10 -40 -4 -8 -8
-37 -10 -65 -2 -27 -6 -57 -10 -65 -3 -8 -8 -37 -12 -65 -8 -69 -16 -894 -8
-907 4 -6 8 -33 10 -62 2 -28 6 -67 9 -86 3 -19 8 -51 10 -70 2 -19 7 -46 11
-60 3 -14 8 -40 10 -59 3 -19 7 -38 10 -43 3 -5 7 -21 9 -36 9 -69 30 -155 67
-277 12 -38 22 -72 23 -75 1 -3 5 -21 9 -40 5 -19 12 -39 16 -45 4 -5 10 -22
14 -37 3 -15 11 -40 17 -55 6 -15 10 -29 10 -30 0 -2 11 -27 24 -57 13 -30 21
-57 18 -60 -4 -3 -1 -6 5 -6 7 0 12 -7 12 -15 0 -9 11 -37 25 -64 13 -27 21
-51 18 -55 -4 -3 -1 -6 5 -6 7 0 12 -6 12 -13 0 -17 51 -121 62 -125 4 -2 8
-10 8 -18 0 -17 21 -56 35 -66 6 -4 7 -8 2 -8 -4 0 3 -17 16 -37 13 -21 26
-43 28 -48 10 -24 94 -161 104 -167 5 -4 6 -8 2 -8 -5 0 -2 -7 5 -15 31 -34
36 -43 31 -49 -4 -3 -1 -6 5 -6 6 0 13 -8 17 -19 3 -10 13 -28 23 -39 9 -11
24 -30 32 -43 34 -50 84 -114 92 -117 4 -2 8 -9 8 -15 0 -7 13 -25 28 -42 15
-16 38 -43 51 -60 76 -98 362 -394 449 -465 24 -19 58 -48 75 -64 18 -15 48
-40 67 -54 19 -14 40 -31 45 -37 11 -12 166 -124 195 -140 10 -6 26 -17 35
-25 9 -8 25 -19 35 -25 10 -5 56 -33 102 -62 417 -257 921 -447 1402 -529 260
-44 333 -49 681 -49 263 0 407 6 495 19 14 2 46 7 71 10 25 4 57 9 70 11 117
19 166 29 239 47 47 11 96 22 110 25 90 16 448 135 565 187 17 8 64 28 105 46
83 36 284 139 342 176 21 13 40 24 43 24 3 0 46 27 97 60 50 33 93 60 95 60 6
0 301 223 338 255 17 15 52 45 79 68 97 82 342 334 435 447 11 14 25 30 29 35
5 6 39 51 76 100 37 50 72 91 77 93 5 2 9 7 9 12 0 7 98 161 117 185 5 6 26
40 46 78 21 37 42 67 47 67 6 0 9 3 8 7 -3 10 52 122 63 129 5 3 7 10 4 15 -4
5 -1 9 4 9 6 0 11 4 11 9 0 5 24 58 52 117 29 60 53 111 53 114 1 3 9 22 18
44 9 21 17 40 17 41 0 1 8 20 17 41 9 22 18 46 19 55 2 9 9 29 15 45 7 16 12
32 11 37 -1 4 2 7 6 7 4 0 8 10 9 22 1 11 8 25 15 29 7 5 10 9 6 9 -4 0 0 21
8 48 15 48 43 145 49 172 2 8 4 17 5 20 1 3 2 9 1 14 -1 4 4 14 10 22 6 8 9
14 6 14 -3 0 -1 17 4 38 11 43 22 89 33 140 2 9 7 37 11 62 4 25 9 54 12 65 3
11 5 27 5 35 0 8 5 20 10 27 5 7 5 14 -2 18 -6 3 -8 11 -4 16 10 17 16 60 31
224 9 105 9 590 0 685 -14 140 -22 204 -33 265 -4 22 -8 55 -8 72 -1 18 -4 33
-7 33 -6 0 -19 75 -22 123 -1 9 -5 17 -10 17 -4 0 -6 4 -3 9 4 5 2 21 -4 35
-5 15 -11 40 -12 57 -1 17 -6 33 -10 35 -4 3 -8 15 -8 28 0 12 -3 26 -7 30 -5
4 -8 15 -9 24 0 10 -3 24 -7 32 -3 8 -13 42 -23 75 -21 72 -19 65 -28 90 -16
41 -19 50 -22 62 -8 41 -116 299 -168 402 -19 38 -32 72 -29 75 4 3 2 6 -4 6
-6 0 -17 15 -24 33 -7 17 -32 65 -55 105 -24 39 -41 72 -38 72 3 0 -3 9 -13
19 -10 11 -27 37 -38 58 -11 21 -22 40 -25 43 -3 3 -21 30 -40 60 -19 30 -46
71 -61 90 -14 19 -52 71 -85 115 -32 44 -67 88 -76 97 -10 10 -16 18 -13 18 2
0 -6 11 -18 23 -12 13 -42 48 -67 78 -94 113 -418 426 -495 479 -12 8 -29 22
-37 30 -9 8 -28 24 -44 35 -15 11 -40 30 -55 43 -15 12 -30 22 -34 22 -3 0
-13 7 -22 15 -20 21 -232 161 -266 176 -15 7 -27 16 -27 21 0 4 -4 8 -8 8 -5
0 -55 26 -113 58 -120 66 -312 158 -414 197 -38 14 -79 30 -90 35 -56 25 -351
119 -425 135 -8 2 -58 13 -110 25 -106 24 -101 23 -225 44 -86 15 -124 20
-225 31 -25 2 -72 7 -105 11 -57 6 -532 14 -537 9z"/>
</g>
</svg>
